<mxfile host="app.diagrams.net" modified="2023-09-20T19:33:43.653Z" agent="Mozilla/5.0 (X11; Linux x86_64) AppleWebKit/537.36 (KHTML, like Gecko) Chrome/117.0.0.0 Safari/537.36 Edg/117.0.2045.35" etag="ts427PXukqXl8vZWFLZ1" version="21.8.0" type="github">
  <diagram id="R2lEEEUBdFMjLlhIrx00" name="Page-1">
    <mxGraphModel dx="4148" dy="2000" grid="1" gridSize="10" guides="1" tooltips="1" connect="1" arrows="1" fold="1" page="1" pageScale="1" pageWidth="850" pageHeight="1100" math="0" shadow="0" extFonts="Permanent Marker^https://fonts.googleapis.com/css?family=Permanent+Marker">
      <root>
        <mxCell id="0" />
        <mxCell id="1" parent="0" />
        <mxCell id="LTAQ_SRKEP-H9aSpujnp-1" value="Usuário" style="rounded=0;whiteSpace=wrap;html=1;" parent="1" vertex="1">
          <mxGeometry x="-430" y="513" width="120" height="60" as="geometry" />
        </mxCell>
        <mxCell id="LTAQ_SRKEP-H9aSpujnp-3" value="Senha" style="ellipse;whiteSpace=wrap;html=1;" parent="1" vertex="1">
          <mxGeometry x="-310" y="390" width="130" height="70" as="geometry" />
        </mxCell>
        <mxCell id="LTAQ_SRKEP-H9aSpujnp-6" value="" style="endArrow=none;html=1;rounded=0;exitX=0.441;exitY=0.029;exitDx=0;exitDy=0;entryX=0;entryY=1;entryDx=0;entryDy=0;exitPerimeter=0;" parent="1" source="LTAQ_SRKEP-H9aSpujnp-16" target="LTAQ_SRKEP-H9aSpujnp-1" edge="1">
          <mxGeometry width="50" height="50" relative="1" as="geometry">
            <mxPoint x="-490" y="620" as="sourcePoint" />
            <mxPoint x="-430" y="593" as="targetPoint" />
          </mxGeometry>
        </mxCell>
        <mxCell id="LTAQ_SRKEP-H9aSpujnp-7" value="" style="endArrow=none;html=1;rounded=0;entryX=0;entryY=0;entryDx=0;entryDy=0;exitX=0.664;exitY=0.962;exitDx=0;exitDy=0;exitPerimeter=0;" parent="1" source="jRGIRm8XnioBFw0qTzFV-4" target="LTAQ_SRKEP-H9aSpujnp-1" edge="1">
          <mxGeometry width="50" height="50" relative="1" as="geometry">
            <mxPoint x="-455.07359312880726" y="448.2842712474617" as="sourcePoint" />
            <mxPoint x="-470" y="503" as="targetPoint" />
          </mxGeometry>
        </mxCell>
        <mxCell id="LTAQ_SRKEP-H9aSpujnp-8" value="" style="endArrow=none;html=1;rounded=0;entryX=0.5;entryY=1;entryDx=0;entryDy=0;exitX=1;exitY=0;exitDx=0;exitDy=0;" parent="1" source="LTAQ_SRKEP-H9aSpujnp-1" target="LTAQ_SRKEP-H9aSpujnp-3" edge="1">
          <mxGeometry width="50" height="50" relative="1" as="geometry">
            <mxPoint x="-310" y="513" as="sourcePoint" />
            <mxPoint x="-260" y="463" as="targetPoint" />
          </mxGeometry>
        </mxCell>
        <mxCell id="LTAQ_SRKEP-H9aSpujnp-9" value="" style="endArrow=none;html=1;rounded=0;entryX=1;entryY=1;entryDx=0;entryDy=0;exitX=0.322;exitY=0.018;exitDx=0;exitDy=0;exitPerimeter=0;" parent="1" source="LTAQ_SRKEP-H9aSpujnp-18" target="LTAQ_SRKEP-H9aSpujnp-1" edge="1">
          <mxGeometry width="50" height="50" relative="1" as="geometry">
            <mxPoint x="-250" y="625" as="sourcePoint" />
            <mxPoint x="-230" y="563" as="targetPoint" />
          </mxGeometry>
        </mxCell>
        <mxCell id="LTAQ_SRKEP-H9aSpujnp-16" value="Lista_de_Favoritos" style="ellipse;whiteSpace=wrap;html=1;" parent="1" vertex="1">
          <mxGeometry x="-542.5" y="625" width="132.5" height="65" as="geometry" />
        </mxCell>
        <mxCell id="LTAQ_SRKEP-H9aSpujnp-18" value="Histórico_de_Buscas" style="ellipse;whiteSpace=wrap;html=1;" parent="1" vertex="1">
          <mxGeometry x="-302" y="630" width="132" height="70" as="geometry" />
        </mxCell>
        <mxCell id="4MAnxMVnoImmJo_8xee9-1" value="Administra" style="shape=rhombus;perimeter=rhombusPerimeter;whiteSpace=wrap;html=1;align=center;" parent="1" vertex="1">
          <mxGeometry x="-730" y="512.5" width="120" height="60" as="geometry" />
        </mxCell>
        <mxCell id="4MAnxMVnoImmJo_8xee9-2" value="" style="endArrow=none;html=1;rounded=0;exitX=0;exitY=0.5;exitDx=0;exitDy=0;entryX=1;entryY=0.5;entryDx=0;entryDy=0;" parent="1" source="LTAQ_SRKEP-H9aSpujnp-1" target="4MAnxMVnoImmJo_8xee9-1" edge="1">
          <mxGeometry relative="1" as="geometry">
            <mxPoint x="-520" y="542.5" as="sourcePoint" />
            <mxPoint x="-560" y="509.5" as="targetPoint" />
          </mxGeometry>
        </mxCell>
        <mxCell id="4MAnxMVnoImmJo_8xee9-3" value="1" style="resizable=0;html=1;whiteSpace=wrap;align=right;verticalAlign=bottom;" parent="4MAnxMVnoImmJo_8xee9-2" connectable="0" vertex="1">
          <mxGeometry x="1" relative="1" as="geometry">
            <mxPoint x="4" y="-4" as="offset" />
          </mxGeometry>
        </mxCell>
        <mxCell id="4MAnxMVnoImmJo_8xee9-4" value="" style="endArrow=none;html=1;rounded=0;entryX=0;entryY=0.5;entryDx=0;entryDy=0;edgeStyle=orthogonalEdgeStyle;" parent="1" target="4MAnxMVnoImmJo_8xee9-1" edge="1">
          <mxGeometry relative="1" as="geometry">
            <mxPoint x="-1080" y="543" as="sourcePoint" />
            <mxPoint x="-1000" y="542.66" as="targetPoint" />
          </mxGeometry>
        </mxCell>
        <mxCell id="4MAnxMVnoImmJo_8xee9-5" value="N" style="resizable=0;html=1;whiteSpace=wrap;align=right;verticalAlign=bottom;" parent="4MAnxMVnoImmJo_8xee9-4" connectable="0" vertex="1">
          <mxGeometry x="1" relative="1" as="geometry">
            <mxPoint x="5" as="offset" />
          </mxGeometry>
        </mxCell>
        <mxCell id="4MAnxMVnoImmJo_8xee9-6" value="Peça" style="whiteSpace=wrap;html=1;align=center;" parent="1" vertex="1">
          <mxGeometry x="-1190" y="520" width="110" height="43" as="geometry" />
        </mxCell>
        <mxCell id="oYfXPeK7zLLB6C0x6cgN-30" style="rounded=0;orthogonalLoop=1;jettySize=auto;html=1;endArrow=none;endFill=0;exitX=0;exitY=0.75;exitDx=0;exitDy=0;" parent="1" source="oYfXPeK7zLLB6C0x6cgN-4" target="oYfXPeK7zLLB6C0x6cgN-29" edge="1">
          <mxGeometry relative="1" as="geometry">
            <mxPoint x="-1955" y="410" as="sourcePoint" />
          </mxGeometry>
        </mxCell>
        <mxCell id="oYfXPeK7zLLB6C0x6cgN-33" style="rounded=0;orthogonalLoop=1;jettySize=auto;html=1;exitX=0;exitY=0;exitDx=0;exitDy=0;endArrow=none;endFill=0;" parent="1" source="oYfXPeK7zLLB6C0x6cgN-4" target="oYfXPeK7zLLB6C0x6cgN-25" edge="1">
          <mxGeometry relative="1" as="geometry" />
        </mxCell>
        <mxCell id="oYfXPeK7zLLB6C0x6cgN-4" value="Placa_Mãe" style="shape=ext;margin=3;double=1;whiteSpace=wrap;html=1;align=center;" parent="1" vertex="1">
          <mxGeometry x="-1950" y="380" width="100" height="40" as="geometry" />
        </mxCell>
        <mxCell id="oYfXPeK7zLLB6C0x6cgN-47" style="rounded=0;orthogonalLoop=1;jettySize=auto;html=1;exitX=1;exitY=1;exitDx=0;exitDy=0;entryX=0.237;entryY=0.079;entryDx=0;entryDy=0;entryPerimeter=0;endArrow=none;endFill=0;" parent="1" source="oYfXPeK7zLLB6C0x6cgN-6" target="oYfXPeK7zLLB6C0x6cgN-25" edge="1">
          <mxGeometry relative="1" as="geometry" />
        </mxCell>
        <mxCell id="oYfXPeK7zLLB6C0x6cgN-6" value="Tipo_de_RAM_Compaível" style="ellipse;whiteSpace=wrap;html=1;align=center;" parent="1" vertex="1">
          <mxGeometry x="-2225" y="270" width="170" height="50" as="geometry" />
        </mxCell>
        <mxCell id="oYfXPeK7zLLB6C0x6cgN-32" style="rounded=0;orthogonalLoop=1;jettySize=auto;html=1;exitX=0.911;exitY=0.886;exitDx=0;exitDy=0;entryX=0;entryY=0;entryDx=0;entryDy=0;endArrow=none;endFill=0;exitPerimeter=0;" parent="1" source="oYfXPeK7zLLB6C0x6cgN-44" target="oYfXPeK7zLLB6C0x6cgN-29" edge="1">
          <mxGeometry relative="1" as="geometry">
            <mxPoint x="-2082.5" y="363" as="sourcePoint" />
          </mxGeometry>
        </mxCell>
        <mxCell id="oYfXPeK7zLLB6C0x6cgN-78" style="rounded=0;orthogonalLoop=1;jettySize=auto;html=1;exitX=1;exitY=0;exitDx=0;exitDy=0;entryX=0.073;entryY=0.695;entryDx=0;entryDy=0;entryPerimeter=0;endArrow=none;endFill=0;" parent="1" source="oYfXPeK7zLLB6C0x6cgN-15" target="oYfXPeK7zLLB6C0x6cgN-29" edge="1">
          <mxGeometry relative="1" as="geometry" />
        </mxCell>
        <mxCell id="oYfXPeK7zLLB6C0x6cgN-15" value="Geração-(processador)_compativel" style="ellipse;shape=doubleEllipse;margin=3;whiteSpace=wrap;html=1;align=center;" parent="1" vertex="1">
          <mxGeometry x="-2285" y="425" width="180" height="70" as="geometry" />
        </mxCell>
        <mxCell id="oYfXPeK7zLLB6C0x6cgN-19" style="rounded=0;orthogonalLoop=1;jettySize=auto;html=1;entryX=0.254;entryY=0.8;entryDx=0;entryDy=0;entryPerimeter=0;endArrow=none;endFill=0;" parent="1" source="oYfXPeK7zLLB6C0x6cgN-16" target="oYfXPeK7zLLB6C0x6cgN-55" edge="1">
          <mxGeometry relative="1" as="geometry">
            <mxPoint x="-1496" y="700" as="sourcePoint" />
          </mxGeometry>
        </mxCell>
        <mxCell id="oYfXPeK7zLLB6C0x6cgN-16" value="Nome_do_componente" style="ellipse;whiteSpace=wrap;html=1;align=center;" parent="1" vertex="1">
          <mxGeometry x="-1330" y="715" width="150" height="50" as="geometry" />
        </mxCell>
        <mxCell id="oYfXPeK7zLLB6C0x6cgN-28" value="" style="rounded=0;orthogonalLoop=1;jettySize=auto;html=1;endArrow=none;endFill=0;" parent="1" source="oYfXPeK7zLLB6C0x6cgN-17" target="oYfXPeK7zLLB6C0x6cgN-25" edge="1">
          <mxGeometry relative="1" as="geometry" />
        </mxCell>
        <mxCell id="oYfXPeK7zLLB6C0x6cgN-17" value="Qtde_de_slots" style="ellipse;whiteSpace=wrap;html=1;align=center;" parent="1" vertex="1">
          <mxGeometry x="-2035" y="275" width="130" height="40" as="geometry" />
        </mxCell>
        <mxCell id="oYfXPeK7zLLB6C0x6cgN-25" value="Slots_de_memoria_RAM" style="ellipse;whiteSpace=wrap;html=1;" parent="1" vertex="1">
          <mxGeometry x="-2100" y="325" width="155" height="50" as="geometry" />
        </mxCell>
        <mxCell id="oYfXPeK7zLLB6C0x6cgN-29" value="Socket_do_processador" style="ellipse;whiteSpace=wrap;html=1;align=center;" parent="1" vertex="1">
          <mxGeometry x="-2105" y="393" width="130" height="37" as="geometry" />
        </mxCell>
        <mxCell id="oYfXPeK7zLLB6C0x6cgN-37" style="rounded=0;orthogonalLoop=1;jettySize=auto;html=1;exitX=0;exitY=0.5;exitDx=0;exitDy=0;entryX=1;entryY=0.5;entryDx=0;entryDy=0;endArrow=none;endFill=0;" parent="1" source="oYfXPeK7zLLB6C0x6cgN-41" target="oYfXPeK7zLLB6C0x6cgN-4" edge="1">
          <mxGeometry relative="1" as="geometry">
            <mxPoint x="-1585" y="400" as="sourcePoint" />
          </mxGeometry>
        </mxCell>
        <mxCell id="oYfXPeK7zLLB6C0x6cgN-39" value="N&lt;br&gt;" style="text;html=1;align=center;verticalAlign=middle;resizable=0;points=[];autosize=1;strokeColor=none;fillColor=none;" parent="1" vertex="1">
          <mxGeometry x="-1765" y="373" width="30" height="30" as="geometry" />
        </mxCell>
        <mxCell id="oYfXPeK7zLLB6C0x6cgN-40" value="&lt;br&gt;1" style="text;html=1;align=center;verticalAlign=middle;resizable=0;points=[];autosize=1;strokeColor=none;fillColor=none;" parent="1" vertex="1">
          <mxGeometry x="-1630" y="360" width="30" height="40" as="geometry" />
        </mxCell>
        <mxCell id="oYfXPeK7zLLB6C0x6cgN-41" value="Possui" style="shape=rhombus;double=1;perimeter=rhombusPerimeter;whiteSpace=wrap;html=1;align=center;" parent="1" vertex="1">
          <mxGeometry x="-1750" y="370" width="120" height="60" as="geometry" />
        </mxCell>
        <mxCell id="oYfXPeK7zLLB6C0x6cgN-42" value="Memoria_RAM" style="shape=ext;margin=3;double=1;whiteSpace=wrap;html=1;align=center;" parent="1" vertex="1">
          <mxGeometry x="-1266" y="20" width="100" height="40" as="geometry" />
        </mxCell>
        <mxCell id="oYfXPeK7zLLB6C0x6cgN-44" value="Sigla_Socket" style="ellipse;whiteSpace=wrap;html=1;align=center;" parent="1" vertex="1">
          <mxGeometry x="-2245" y="355" width="130" height="40" as="geometry" />
        </mxCell>
        <mxCell id="oYfXPeK7zLLB6C0x6cgN-49" value="&lt;br&gt;1" style="text;html=1;align=center;verticalAlign=middle;resizable=0;points=[];autosize=1;strokeColor=none;fillColor=none;" parent="1" vertex="1">
          <mxGeometry x="-1166" y="130" width="30" height="40" as="geometry" />
        </mxCell>
        <mxCell id="p8DppHy_yBbBiBC5wIIv-59" style="edgeStyle=orthogonalEdgeStyle;rounded=0;orthogonalLoop=1;jettySize=auto;html=1;exitX=0;exitY=0.5;exitDx=0;exitDy=0;entryX=0;entryY=0.5;entryDx=0;entryDy=0;endArrow=none;endFill=0;" parent="1" source="oYfXPeK7zLLB6C0x6cgN-50" target="oYfXPeK7zLLB6C0x6cgN-42" edge="1">
          <mxGeometry relative="1" as="geometry" />
        </mxCell>
        <mxCell id="oYfXPeK7zLLB6C0x6cgN-50" value="Possui" style="shape=rhombus;double=1;perimeter=rhombusPerimeter;whiteSpace=wrap;html=1;align=center;rotation=0;" parent="1" vertex="1">
          <mxGeometry x="-1276" y="140" width="120" height="60" as="geometry" />
        </mxCell>
        <mxCell id="p8DppHy_yBbBiBC5wIIv-2" style="edgeStyle=orthogonalEdgeStyle;rounded=0;orthogonalLoop=1;jettySize=auto;html=1;exitX=0.5;exitY=0;exitDx=0;exitDy=0;entryX=0.5;entryY=1;entryDx=0;entryDy=0;endArrow=none;endFill=0;" parent="1" source="oYfXPeK7zLLB6C0x6cgN-55" target="4MAnxMVnoImmJo_8xee9-6" edge="1">
          <mxGeometry relative="1" as="geometry" />
        </mxCell>
        <mxCell id="p8DppHy_yBbBiBC5wIIv-90" style="rounded=0;orthogonalLoop=1;jettySize=auto;html=1;exitX=1;exitY=0.5;exitDx=0;exitDy=0;entryX=0;entryY=0.5;entryDx=0;entryDy=0;endArrow=none;endFill=0;" parent="1" source="oYfXPeK7zLLB6C0x6cgN-55" target="p8DppHy_yBbBiBC5wIIv-89" edge="1">
          <mxGeometry relative="1" as="geometry" />
        </mxCell>
        <mxCell id="oYfXPeK7zLLB6C0x6cgN-55" value="Info_geral" style="ellipse;whiteSpace=wrap;html=1;align=center;" parent="1" vertex="1">
          <mxGeometry x="-1199" y="680" width="130" height="50" as="geometry" />
        </mxCell>
        <mxCell id="oYfXPeK7zLLB6C0x6cgN-59" style="rounded=0;orthogonalLoop=1;jettySize=auto;html=1;entryX=0.623;entryY=1.054;entryDx=0;entryDy=0;endArrow=none;endFill=0;entryPerimeter=0;" parent="1" source="oYfXPeK7zLLB6C0x6cgN-58" target="oYfXPeK7zLLB6C0x6cgN-55" edge="1">
          <mxGeometry relative="1" as="geometry" />
        </mxCell>
        <mxCell id="oYfXPeK7zLLB6C0x6cgN-58" value="&lt;span style=&quot;border-bottom: 1px dotted&quot;&gt;Número_De_Série&lt;/span&gt;" style="ellipse;whiteSpace=wrap;html=1;align=center;" parent="1" vertex="1">
          <mxGeometry x="-1195" y="755" width="130" height="40" as="geometry" />
        </mxCell>
        <mxCell id="oYfXPeK7zLLB6C0x6cgN-66" style="rounded=0;orthogonalLoop=1;jettySize=auto;html=1;endArrow=none;endFill=0;" parent="1" source="oYfXPeK7zLLB6C0x6cgN-60" target="oYfXPeK7zLLB6C0x6cgN-42" edge="1">
          <mxGeometry relative="1" as="geometry" />
        </mxCell>
        <mxCell id="oYfXPeK7zLLB6C0x6cgN-60" value="Frequência(Mhz)" style="ellipse;whiteSpace=wrap;html=1;align=center;" parent="1" vertex="1">
          <mxGeometry x="-1210" y="-90" width="130" height="50" as="geometry" />
        </mxCell>
        <mxCell id="oYfXPeK7zLLB6C0x6cgN-68" style="rounded=0;orthogonalLoop=1;jettySize=auto;html=1;exitX=0.27;exitY=0.1;exitDx=0;exitDy=0;entryX=0.762;entryY=0.9;entryDx=0;entryDy=0;entryPerimeter=0;endArrow=none;endFill=0;exitPerimeter=0;" parent="1" source="oYfXPeK7zLLB6C0x6cgN-62" target="oYfXPeK7zLLB6C0x6cgN-55" edge="1">
          <mxGeometry relative="1" as="geometry" />
        </mxCell>
        <mxCell id="oYfXPeK7zLLB6C0x6cgN-62" value="Fabricante" style="ellipse;whiteSpace=wrap;html=1;align=center;" parent="1" vertex="1">
          <mxGeometry x="-1086" y="730" width="100" height="30" as="geometry" />
        </mxCell>
        <mxCell id="oYfXPeK7zLLB6C0x6cgN-67" value="" style="rounded=0;orthogonalLoop=1;jettySize=auto;html=1;endArrow=none;endFill=0;" parent="1" source="oYfXPeK7zLLB6C0x6cgN-65" target="oYfXPeK7zLLB6C0x6cgN-42" edge="1">
          <mxGeometry relative="1" as="geometry" />
        </mxCell>
        <mxCell id="oYfXPeK7zLLB6C0x6cgN-65" value="Tipo_de_RAM" style="ellipse;whiteSpace=wrap;html=1;align=center;" parent="1" vertex="1">
          <mxGeometry x="-1350" y="-40" width="130" height="50" as="geometry" />
        </mxCell>
        <mxCell id="p8DppHy_yBbBiBC5wIIv-8" style="rounded=0;orthogonalLoop=1;jettySize=auto;html=1;exitX=1;exitY=0.5;exitDx=0;exitDy=0;entryX=0;entryY=0.5;entryDx=0;entryDy=0;endArrow=none;endFill=0;edgeStyle=orthogonalEdgeStyle;" parent="1" source="p8DppHy_yBbBiBC5wIIv-7" target="p8DppHy_yBbBiBC5wIIv-56" edge="1">
          <mxGeometry relative="1" as="geometry">
            <mxPoint x="-1551.9615242270665" y="140" as="targetPoint" />
          </mxGeometry>
        </mxCell>
        <mxCell id="p8DppHy_yBbBiBC5wIIv-7" value="Processador" style="shape=ext;margin=3;double=1;whiteSpace=wrap;html=1;align=center;rotation=0;" parent="1" vertex="1">
          <mxGeometry x="-1740" y="80" width="100" height="40" as="geometry" />
        </mxCell>
        <mxCell id="p8DppHy_yBbBiBC5wIIv-9" value="N" style="text;html=1;align=center;verticalAlign=middle;resizable=0;points=[];autosize=1;strokeColor=none;fillColor=none;" parent="1" vertex="1">
          <mxGeometry x="-1600" y="57" width="30" height="30" as="geometry" />
        </mxCell>
        <mxCell id="p8DppHy_yBbBiBC5wIIv-10" value="&lt;br&gt;1" style="text;html=1;align=center;verticalAlign=middle;resizable=0;points=[];autosize=1;strokeColor=none;fillColor=none;" parent="1" vertex="1">
          <mxGeometry x="-1495" y="47" width="30" height="40" as="geometry" />
        </mxCell>
        <mxCell id="p8DppHy_yBbBiBC5wIIv-11" style="rounded=0;orthogonalLoop=1;jettySize=auto;html=1;endArrow=none;endFill=0;exitX=0;exitY=0.5;exitDx=0;exitDy=0;entryX=1;entryY=0.5;entryDx=0;entryDy=0;" parent="1" source="p8DppHy_yBbBiBC5wIIv-7" target="p8DppHy_yBbBiBC5wIIv-17" edge="1">
          <mxGeometry relative="1" as="geometry">
            <mxPoint x="-1740" y="65" as="sourcePoint" />
            <mxPoint x="-1790.1435957847434" y="81.11401487892726" as="targetPoint" />
          </mxGeometry>
        </mxCell>
        <mxCell id="p8DppHy_yBbBiBC5wIIv-14" style="rounded=0;orthogonalLoop=1;jettySize=auto;html=1;exitX=1;exitY=0;exitDx=0;exitDy=0;entryX=0;entryY=1;entryDx=0;entryDy=0;endArrow=none;endFill=0;" parent="1" target="p8DppHy_yBbBiBC5wIIv-7" edge="1">
          <mxGeometry relative="1" as="geometry">
            <mxPoint x="-1795.5025253169415" y="125.85786437626894" as="sourcePoint" />
            <mxPoint x="-1885.5100000000002" y="73.71499999999992" as="targetPoint" />
          </mxGeometry>
        </mxCell>
        <mxCell id="p8DppHy_yBbBiBC5wIIv-17" value="Sigla_Socket" style="ellipse;whiteSpace=wrap;html=1;align=center;" parent="1" vertex="1">
          <mxGeometry x="-1945" y="47" width="130" height="40" as="geometry" />
        </mxCell>
        <mxCell id="p8DppHy_yBbBiBC5wIIv-22" style="rounded=0;orthogonalLoop=1;jettySize=auto;html=1;exitX=0.5;exitY=1;exitDx=0;exitDy=0;entryX=0.5;entryY=0;entryDx=0;entryDy=0;endArrow=none;endFill=0;" parent="1" source="p8DppHy_yBbBiBC5wIIv-20" target="p8DppHy_yBbBiBC5wIIv-7" edge="1">
          <mxGeometry relative="1" as="geometry" />
        </mxCell>
        <mxCell id="p8DppHy_yBbBiBC5wIIv-23" style="rounded=0;orthogonalLoop=1;jettySize=auto;html=1;exitX=0;exitY=0;exitDx=0;exitDy=0;entryX=0.7;entryY=0.925;entryDx=0;entryDy=0;endArrow=none;endFill=0;entryPerimeter=0;" parent="1" source="p8DppHy_yBbBiBC5wIIv-20" target="p8DppHy_yBbBiBC5wIIv-24" edge="1">
          <mxGeometry relative="1" as="geometry">
            <mxPoint x="-1770" y="-20" as="targetPoint" />
          </mxGeometry>
        </mxCell>
        <mxCell id="p8DppHy_yBbBiBC5wIIv-20" value="Especificações_RAM" style="ellipse;whiteSpace=wrap;html=1;align=center;" parent="1" vertex="1">
          <mxGeometry x="-1755" y="10" width="130" height="37" as="geometry" />
        </mxCell>
        <mxCell id="p8DppHy_yBbBiBC5wIIv-24" value="Tipo_RAM_compativel" style="ellipse;shape=doubleEllipse;margin=3;whiteSpace=wrap;html=1;align=center;" parent="1" vertex="1">
          <mxGeometry x="-1885" y="-55" width="160" height="40" as="geometry" />
        </mxCell>
        <mxCell id="p8DppHy_yBbBiBC5wIIv-27" style="rounded=0;orthogonalLoop=1;jettySize=auto;html=1;exitX=0.5;exitY=1;exitDx=0;exitDy=0;entryX=0.762;entryY=0.059;entryDx=0;entryDy=0;entryPerimeter=0;endArrow=none;endFill=0;" parent="1" source="p8DppHy_yBbBiBC5wIIv-26" target="p8DppHy_yBbBiBC5wIIv-20" edge="1">
          <mxGeometry relative="1" as="geometry" />
        </mxCell>
        <mxCell id="p8DppHy_yBbBiBC5wIIv-26" value="Frequencia_compativel" style="ellipse;whiteSpace=wrap;html=1;align=center;" parent="1" vertex="1">
          <mxGeometry x="-1715" y="-70" width="150" height="50" as="geometry" />
        </mxCell>
        <mxCell id="p8DppHy_yBbBiBC5wIIv-29" value="Geração" style="ellipse;whiteSpace=wrap;html=1;align=center;" parent="1" vertex="1">
          <mxGeometry x="-1925" y="105" width="130" height="40" as="geometry" />
        </mxCell>
        <mxCell id="p8DppHy_yBbBiBC5wIIv-31" value="Placa_de_Vídeo" style="shape=ext;margin=3;double=1;whiteSpace=wrap;html=1;align=center;" parent="1" vertex="1">
          <mxGeometry x="-2160" y="640" width="110" height="40" as="geometry" />
        </mxCell>
        <mxCell id="p8DppHy_yBbBiBC5wIIv-37" style="edgeStyle=orthogonalEdgeStyle;rounded=0;orthogonalLoop=1;jettySize=auto;html=1;exitX=0;exitY=0.5;exitDx=0;exitDy=0;entryX=1;entryY=0.5;entryDx=0;entryDy=0;endArrow=none;endFill=0;" parent="1" source="p8DppHy_yBbBiBC5wIIv-32" target="p8DppHy_yBbBiBC5wIIv-31" edge="1">
          <mxGeometry relative="1" as="geometry" />
        </mxCell>
        <mxCell id="p8DppHy_yBbBiBC5wIIv-32" value="Possui" style="shape=rhombus;double=1;perimeter=rhombusPerimeter;whiteSpace=wrap;html=1;align=center;" parent="1" vertex="1">
          <mxGeometry x="-2005" y="570" width="120" height="60" as="geometry" />
        </mxCell>
        <mxCell id="p8DppHy_yBbBiBC5wIIv-34" value="N&lt;br&gt;" style="text;html=1;align=center;verticalAlign=middle;resizable=0;points=[];autosize=1;strokeColor=none;fillColor=none;" parent="1" vertex="1">
          <mxGeometry x="-2030" y="560" width="30" height="30" as="geometry" />
        </mxCell>
        <mxCell id="p8DppHy_yBbBiBC5wIIv-35" value="&lt;br&gt;1" style="text;html=1;align=center;verticalAlign=middle;resizable=0;points=[];autosize=1;strokeColor=none;fillColor=none;" parent="1" vertex="1">
          <mxGeometry x="-1895" y="550" width="30" height="40" as="geometry" />
        </mxCell>
        <mxCell id="p8DppHy_yBbBiBC5wIIv-39" style="rounded=0;orthogonalLoop=1;jettySize=auto;html=1;exitX=0.936;exitY=0.25;exitDx=0;exitDy=0;entryX=0;entryY=0.5;entryDx=0;entryDy=0;endArrow=none;endFill=0;exitPerimeter=0;" parent="1" source="p8DppHy_yBbBiBC5wIIv-38" target="p8DppHy_yBbBiBC5wIIv-31" edge="1">
          <mxGeometry relative="1" as="geometry" />
        </mxCell>
        <mxCell id="p8DppHy_yBbBiBC5wIIv-38" value="Potência_recomentada" style="ellipse;whiteSpace=wrap;html=1;align=center;" parent="1" vertex="1">
          <mxGeometry x="-2330" y="610" width="140" height="40" as="geometry" />
        </mxCell>
        <mxCell id="p8DppHy_yBbBiBC5wIIv-43" style="rounded=0;orthogonalLoop=1;jettySize=auto;html=1;exitX=1;exitY=0;exitDx=0;exitDy=0;entryX=0.37;entryY=0.95;entryDx=0;entryDy=0;entryPerimeter=0;endArrow=none;endFill=0;" parent="1" source="p8DppHy_yBbBiBC5wIIv-42" target="oYfXPeK7zLLB6C0x6cgN-4" edge="1">
          <mxGeometry relative="1" as="geometry" />
        </mxCell>
        <mxCell id="p8DppHy_yBbBiBC5wIIv-42" value="Tecnologia_pcie_compativel" style="ellipse;whiteSpace=wrap;html=1;align=center;" parent="1" vertex="1">
          <mxGeometry x="-2090" y="450" width="195" height="40" as="geometry" />
        </mxCell>
        <mxCell id="p8DppHy_yBbBiBC5wIIv-45" style="rounded=0;orthogonalLoop=1;jettySize=auto;html=1;entryX=0;entryY=0.75;entryDx=0;entryDy=0;endArrow=none;endFill=0;exitX=1;exitY=0.5;exitDx=0;exitDy=0;" parent="1" source="p8DppHy_yBbBiBC5wIIv-44" target="p8DppHy_yBbBiBC5wIIv-31" edge="1">
          <mxGeometry relative="1" as="geometry">
            <mxPoint x="-2110" y="705" as="sourcePoint" />
          </mxGeometry>
        </mxCell>
        <mxCell id="p8DppHy_yBbBiBC5wIIv-44" value="Tecnologia pcie" style="ellipse;whiteSpace=wrap;html=1;align=center;" parent="1" vertex="1">
          <mxGeometry x="-2340" y="655" width="140" height="40" as="geometry" />
        </mxCell>
        <mxCell id="p8DppHy_yBbBiBC5wIIv-47" value="Fonte" style="shape=ext;margin=3;double=1;whiteSpace=wrap;html=1;align=center;" parent="1" vertex="1">
          <mxGeometry x="-1995" y="840" width="110" height="40" as="geometry" />
        </mxCell>
        <mxCell id="p8DppHy_yBbBiBC5wIIv-51" style="edgeStyle=orthogonalEdgeStyle;rounded=0;orthogonalLoop=1;jettySize=auto;html=1;exitX=0;exitY=0.5;exitDx=0;exitDy=0;entryX=1;entryY=0.5;entryDx=0;entryDy=0;endArrow=none;endFill=0;" parent="1" source="p8DppHy_yBbBiBC5wIIv-48" target="p8DppHy_yBbBiBC5wIIv-47" edge="1">
          <mxGeometry relative="1" as="geometry" />
        </mxCell>
        <mxCell id="p8DppHy_yBbBiBC5wIIv-48" value="possui" style="shape=rhombus;double=1;perimeter=rhombusPerimeter;whiteSpace=wrap;html=1;align=center;rotation=0;" parent="1" vertex="1">
          <mxGeometry x="-1852.5" y="830" width="120" height="60" as="geometry" />
        </mxCell>
        <mxCell id="p8DppHy_yBbBiBC5wIIv-50" value="&lt;br&gt;1" style="text;html=1;align=center;verticalAlign=middle;resizable=0;points=[];autosize=1;strokeColor=none;fillColor=none;" parent="1" vertex="1">
          <mxGeometry x="-1732.5" y="820" width="30" height="40" as="geometry" />
        </mxCell>
        <mxCell id="p8DppHy_yBbBiBC5wIIv-52" value="N&lt;br&gt;" style="text;html=1;align=center;verticalAlign=middle;resizable=0;points=[];autosize=1;strokeColor=none;fillColor=none;" parent="1" vertex="1">
          <mxGeometry x="-1877.5" y="830" width="30" height="30" as="geometry" />
        </mxCell>
        <mxCell id="p8DppHy_yBbBiBC5wIIv-54" style="edgeStyle=orthogonalEdgeStyle;rounded=0;orthogonalLoop=1;jettySize=auto;html=1;exitX=1;exitY=0.5;exitDx=0;exitDy=0;entryX=0;entryY=0.5;entryDx=0;entryDy=0;endArrow=none;endFill=0;" parent="1" source="p8DppHy_yBbBiBC5wIIv-53" target="p8DppHy_yBbBiBC5wIIv-47" edge="1">
          <mxGeometry relative="1" as="geometry" />
        </mxCell>
        <mxCell id="p8DppHy_yBbBiBC5wIIv-53" value="Potência" style="ellipse;whiteSpace=wrap;html=1;align=center;" parent="1" vertex="1">
          <mxGeometry x="-2210" y="840" width="140" height="40" as="geometry" />
        </mxCell>
        <mxCell id="p8DppHy_yBbBiBC5wIIv-56" value="Possui" style="shape=rhombus;double=1;perimeter=rhombusPerimeter;whiteSpace=wrap;html=1;align=center;" parent="1" vertex="1">
          <mxGeometry x="-1590" y="62" width="120" height="60" as="geometry" />
        </mxCell>
        <mxCell id="oYfXPeK7zLLB6C0x6cgN-53" value="N" style="text;html=1;align=center;verticalAlign=middle;resizable=0;points=[];autosize=1;strokeColor=none;fillColor=none;" parent="1" vertex="1">
          <mxGeometry x="-1285" y="140" width="30" height="30" as="geometry" />
        </mxCell>
        <mxCell id="p8DppHy_yBbBiBC5wIIv-60" value="Cooler" style="shape=ext;margin=3;double=1;whiteSpace=wrap;html=1;align=center;" parent="1" vertex="1">
          <mxGeometry x="-1702.5" y="1010" width="110" height="40" as="geometry" />
        </mxCell>
        <mxCell id="p8DppHy_yBbBiBC5wIIv-62" style="edgeStyle=orthogonalEdgeStyle;rounded=0;orthogonalLoop=1;jettySize=auto;html=1;exitX=1;exitY=0;exitDx=0;exitDy=0;entryX=0;entryY=0.5;entryDx=0;entryDy=0;endArrow=none;endFill=0;" parent="1" target="p8DppHy_yBbBiBC5wIIv-60" edge="1">
          <mxGeometry relative="1" as="geometry">
            <mxPoint x="-1735.644554498445" y="1025.8174007179439" as="sourcePoint" />
            <Array as="points">
              <mxPoint x="-1727.5" y="1030" />
            </Array>
          </mxGeometry>
        </mxCell>
        <mxCell id="p8DppHy_yBbBiBC5wIIv-65" style="edgeStyle=orthogonalEdgeStyle;rounded=0;orthogonalLoop=1;jettySize=auto;html=1;exitX=0;exitY=0.5;exitDx=0;exitDy=0;entryX=1;entryY=0.5;entryDx=0;entryDy=0;endArrow=none;endFill=0;" parent="1" source="p8DppHy_yBbBiBC5wIIv-63" target="p8DppHy_yBbBiBC5wIIv-60" edge="1">
          <mxGeometry relative="1" as="geometry" />
        </mxCell>
        <mxCell id="p8DppHy_yBbBiBC5wIIv-63" value="possui" style="shape=rhombus;double=1;perimeter=rhombusPerimeter;whiteSpace=wrap;html=1;align=center;rotation=0;" parent="1" vertex="1">
          <mxGeometry x="-1520" y="1000" width="120" height="60" as="geometry" />
        </mxCell>
        <mxCell id="p8DppHy_yBbBiBC5wIIv-66" value="N&lt;br&gt;" style="text;html=1;align=center;verticalAlign=middle;resizable=0;points=[];autosize=1;strokeColor=none;fillColor=none;" parent="1" vertex="1">
          <mxGeometry x="-1535" y="1000" width="30" height="30" as="geometry" />
        </mxCell>
        <mxCell id="p8DppHy_yBbBiBC5wIIv-67" value="&lt;br&gt;1" style="text;html=1;align=center;verticalAlign=middle;resizable=0;points=[];autosize=1;strokeColor=none;fillColor=none;" parent="1" vertex="1">
          <mxGeometry x="-1410" y="990" width="30" height="40" as="geometry" />
        </mxCell>
        <mxCell id="p8DppHy_yBbBiBC5wIIv-69" style="edgeStyle=orthogonalEdgeStyle;rounded=0;orthogonalLoop=1;jettySize=auto;html=1;exitX=1;exitY=0.5;exitDx=0;exitDy=0;entryX=0;entryY=0.5;entryDx=0;entryDy=0;endArrow=none;endFill=0;" parent="1" source="p8DppHy_yBbBiBC5wIIv-68" target="p8DppHy_yBbBiBC5wIIv-47" edge="1">
          <mxGeometry relative="1" as="geometry" />
        </mxCell>
        <mxCell id="p8DppHy_yBbBiBC5wIIv-68" value="Classificação_de_eficiência" style="ellipse;whiteSpace=wrap;html=1;align=center;" parent="1" vertex="1">
          <mxGeometry x="-2200" y="880" width="170" height="40" as="geometry" />
        </mxCell>
        <mxCell id="p8DppHy_yBbBiBC5wIIv-71" style="rounded=0;orthogonalLoop=1;jettySize=auto;html=1;exitX=1;exitY=0.5;exitDx=0;exitDy=0;entryX=0;entryY=1;entryDx=0;entryDy=0;endArrow=none;endFill=0;" parent="1" source="p8DppHy_yBbBiBC5wIIv-70" target="p8DppHy_yBbBiBC5wIIv-31" edge="1">
          <mxGeometry relative="1" as="geometry" />
        </mxCell>
        <mxCell id="p8DppHy_yBbBiBC5wIIv-70" value="Quantidade_Vram" style="ellipse;whiteSpace=wrap;html=1;align=center;" parent="1" vertex="1">
          <mxGeometry x="-2330" y="700" width="140" height="40" as="geometry" />
        </mxCell>
        <mxCell id="p8DppHy_yBbBiBC5wIIv-73" style="edgeStyle=orthogonalEdgeStyle;rounded=0;orthogonalLoop=1;jettySize=auto;html=1;exitX=0.5;exitY=0;exitDx=0;exitDy=0;entryX=0.438;entryY=0.965;entryDx=0;entryDy=0;entryPerimeter=0;endArrow=none;endFill=0;" parent="1" source="p8DppHy_yBbBiBC5wIIv-72" target="p8DppHy_yBbBiBC5wIIv-31" edge="1">
          <mxGeometry relative="1" as="geometry" />
        </mxCell>
        <mxCell id="p8DppHy_yBbBiBC5wIIv-72" value="Qtdde_CUDA_cores" style="ellipse;whiteSpace=wrap;html=1;align=center;" parent="1" vertex="1">
          <mxGeometry x="-2187.5" y="710" width="140" height="40" as="geometry" />
        </mxCell>
        <mxCell id="p8DppHy_yBbBiBC5wIIv-80" style="rounded=0;orthogonalLoop=1;jettySize=auto;html=1;exitX=1;exitY=0;exitDx=0;exitDy=0;entryX=0.25;entryY=1;entryDx=0;entryDy=0;endArrow=none;endFill=0;" parent="1" source="p8DppHy_yBbBiBC5wIIv-74" target="p8DppHy_yBbBiBC5wIIv-7" edge="1">
          <mxGeometry relative="1" as="geometry" />
        </mxCell>
        <mxCell id="p8DppHy_yBbBiBC5wIIv-74" value="Nucleos/threads" style="ellipse;whiteSpace=wrap;html=1;align=center;" parent="1" vertex="1">
          <mxGeometry x="-1835" y="160" width="90" height="40" as="geometry" />
        </mxCell>
        <mxCell id="p8DppHy_yBbBiBC5wIIv-77" style="edgeStyle=orthogonalEdgeStyle;rounded=0;orthogonalLoop=1;jettySize=auto;html=1;exitX=0.5;exitY=0;exitDx=0;exitDy=0;entryX=0.5;entryY=1;entryDx=0;entryDy=0;endArrow=none;endFill=0;" parent="1" source="p8DppHy_yBbBiBC5wIIv-76" edge="1">
          <mxGeometry relative="1" as="geometry">
            <mxPoint x="-1731.7488582487572" y="217.08359743248087" as="sourcePoint" />
            <mxPoint x="-1695" y="122.91000000000003" as="targetPoint" />
          </mxGeometry>
        </mxCell>
        <mxCell id="p8DppHy_yBbBiBC5wIIv-76" value="Frequência" style="ellipse;whiteSpace=wrap;html=1;align=center;" parent="1" vertex="1">
          <mxGeometry x="-1740" y="180" width="90" height="40" as="geometry" />
        </mxCell>
        <mxCell id="p8DppHy_yBbBiBC5wIIv-79" style="edgeStyle=orthogonalEdgeStyle;rounded=0;orthogonalLoop=1;jettySize=auto;html=1;exitX=0;exitY=0.5;exitDx=0;exitDy=0;entryX=1;entryY=0.5;entryDx=0;entryDy=0;endArrow=none;endFill=0;" parent="1" source="p8DppHy_yBbBiBC5wIIv-78" target="oYfXPeK7zLLB6C0x6cgN-42" edge="1">
          <mxGeometry relative="1" as="geometry" />
        </mxCell>
        <mxCell id="p8DppHy_yBbBiBC5wIIv-78" value="Latencia" style="ellipse;whiteSpace=wrap;html=1;align=center;" parent="1" vertex="1">
          <mxGeometry x="-1125" y="15" width="130" height="50" as="geometry" />
        </mxCell>
        <mxCell id="p8DppHy_yBbBiBC5wIIv-83" value="Socket_compatível" style="ellipse;shape=doubleEllipse;margin=3;whiteSpace=wrap;html=1;align=center;" parent="1" vertex="1">
          <mxGeometry x="-1885" y="1010" width="170" height="50" as="geometry" />
        </mxCell>
        <mxCell id="p8DppHy_yBbBiBC5wIIv-85" style="edgeStyle=orthogonalEdgeStyle;rounded=0;orthogonalLoop=1;jettySize=auto;html=1;exitX=1;exitY=0.5;exitDx=0;exitDy=0;entryX=0;entryY=0.5;entryDx=0;entryDy=0;endArrow=none;endFill=0;" parent="1" source="p8DppHy_yBbBiBC5wIIv-84" target="jRGIRm8XnioBFw0qTzFV-10" edge="1">
          <mxGeometry relative="1" as="geometry">
            <mxPoint x="-840" y="630" as="targetPoint" />
          </mxGeometry>
        </mxCell>
        <mxCell id="p8DppHy_yBbBiBC5wIIv-86" style="edgeStyle=orthogonalEdgeStyle;rounded=0;orthogonalLoop=1;jettySize=auto;html=1;exitX=0;exitY=0.5;exitDx=0;exitDy=0;entryX=1;entryY=0.5;entryDx=0;entryDy=0;endArrow=none;endFill=0;" parent="1" source="p8DppHy_yBbBiBC5wIIv-84" target="4MAnxMVnoImmJo_8xee9-6" edge="1">
          <mxGeometry relative="1" as="geometry" />
        </mxCell>
        <mxCell id="p8DppHy_yBbBiBC5wIIv-84" value="Disponibiliza" style="shape=rhombus;perimeter=rhombusPerimeter;whiteSpace=wrap;html=1;align=center;" parent="1" vertex="1">
          <mxGeometry x="-1000" y="600" width="120" height="60" as="geometry" />
        </mxCell>
        <mxCell id="p8DppHy_yBbBiBC5wIIv-87" value="1" style="resizable=0;html=1;whiteSpace=wrap;align=right;verticalAlign=bottom;" parent="1" connectable="0" vertex="1">
          <mxGeometry x="-1000.0007224902124" y="625.0000030705831" as="geometry" />
        </mxCell>
        <mxCell id="p8DppHy_yBbBiBC5wIIv-88" value="1" style="resizable=0;html=1;whiteSpace=wrap;align=right;verticalAlign=bottom;" parent="1" connectable="0" vertex="1">
          <mxGeometry x="-870" y="625" as="geometry" />
        </mxCell>
        <mxCell id="p8DppHy_yBbBiBC5wIIv-89" value="Distribuidor &lt;br&gt;(Parceiro)" style="ellipse;whiteSpace=wrap;html=1;align=center;" parent="1" vertex="1">
          <mxGeometry x="-1050" y="680" width="110" height="40" as="geometry" />
        </mxCell>
        <mxCell id="waNpeRLkHKdOiJPTRnsB-10" style="edgeStyle=orthogonalEdgeStyle;rounded=0;orthogonalLoop=1;jettySize=auto;html=1;exitX=0.5;exitY=0;exitDx=0;exitDy=0;endArrow=none;endFill=0;" parent="1" source="waNpeRLkHKdOiJPTRnsB-9" edge="1">
          <mxGeometry relative="1" as="geometry">
            <mxPoint x="-760" y="650" as="targetPoint" />
          </mxGeometry>
        </mxCell>
        <mxCell id="waNpeRLkHKdOiJPTRnsB-9" value="&lt;span style=&quot;border-bottom: 1px dotted&quot;&gt;Parceiro_id&lt;/span&gt;" style="ellipse;whiteSpace=wrap;html=1;align=center;" parent="1" vertex="1">
          <mxGeometry x="-880" y="690" width="100" height="40" as="geometry" />
        </mxCell>
        <mxCell id="waNpeRLkHKdOiJPTRnsB-13" style="edgeStyle=orthogonalEdgeStyle;rounded=0;orthogonalLoop=1;jettySize=auto;html=1;exitX=0.5;exitY=0;exitDx=0;exitDy=0;endArrow=none;endFill=0;" parent="1" source="waNpeRLkHKdOiJPTRnsB-12" target="jRGIRm8XnioBFw0qTzFV-10" edge="1">
          <mxGeometry relative="1" as="geometry">
            <mxPoint x="-770" y="660" as="targetPoint" />
          </mxGeometry>
        </mxCell>
        <mxCell id="waNpeRLkHKdOiJPTRnsB-12" value="Peça_vinculada" style="ellipse;shape=doubleEllipse;margin=3;whiteSpace=wrap;html=1;align=center;" parent="1" vertex="1">
          <mxGeometry x="-770" y="690" width="120" height="40" as="geometry" />
        </mxCell>
        <mxCell id="waNpeRLkHKdOiJPTRnsB-16" style="edgeStyle=orthogonalEdgeStyle;rounded=0;orthogonalLoop=1;jettySize=auto;html=1;exitX=1;exitY=0.5;exitDx=0;exitDy=0;entryX=0.5;entryY=0;entryDx=0;entryDy=0;endArrow=none;endFill=0;" parent="1" source="waNpeRLkHKdOiJPTRnsB-15" target="LTAQ_SRKEP-H9aSpujnp-1" edge="1">
          <mxGeometry relative="1" as="geometry" />
        </mxCell>
        <mxCell id="waNpeRLkHKdOiJPTRnsB-17" style="edgeStyle=orthogonalEdgeStyle;rounded=0;orthogonalLoop=1;jettySize=auto;html=1;exitX=0;exitY=0.5;exitDx=0;exitDy=0;endArrow=none;endFill=0;" parent="1" source="waNpeRLkHKdOiJPTRnsB-15" target="4MAnxMVnoImmJo_8xee9-6" edge="1">
          <mxGeometry relative="1" as="geometry" />
        </mxCell>
        <mxCell id="waNpeRLkHKdOiJPTRnsB-15" value="Consulta*" style="shape=rhombus;perimeter=rhombusPerimeter;whiteSpace=wrap;html=1;align=center;" parent="1" vertex="1">
          <mxGeometry x="-820" y="260" width="120" height="60" as="geometry" />
        </mxCell>
        <mxCell id="waNpeRLkHKdOiJPTRnsB-19" value="N" style="resizable=0;html=1;whiteSpace=wrap;align=right;verticalAlign=bottom;" parent="1" connectable="0" vertex="1">
          <mxGeometry x="-820.0030863021575" y="290" as="geometry" />
        </mxCell>
        <mxCell id="waNpeRLkHKdOiJPTRnsB-20" value="N" style="resizable=0;html=1;whiteSpace=wrap;align=right;verticalAlign=bottom;" parent="1" connectable="0" vertex="1">
          <mxGeometry x="-690.0030863021575" y="290" as="geometry" />
        </mxCell>
        <mxCell id="jRGIRm8XnioBFw0qTzFV-2" style="rounded=0;orthogonalLoop=1;jettySize=auto;html=1;exitX=1;exitY=0.5;exitDx=0;exitDy=0;entryX=0;entryY=0.5;entryDx=0;entryDy=0;endArrow=none;endFill=0;" edge="1" parent="1" source="jRGIRm8XnioBFw0qTzFV-1" target="4MAnxMVnoImmJo_8xee9-6">
          <mxGeometry relative="1" as="geometry" />
        </mxCell>
        <mxCell id="jRGIRm8XnioBFw0qTzFV-1" value="Categoria" style="ellipse;whiteSpace=wrap;html=1;align=center;" vertex="1" parent="1">
          <mxGeometry x="-1350" y="520" width="90" height="45" as="geometry" />
        </mxCell>
        <mxCell id="jRGIRm8XnioBFw0qTzFV-3" value="Attribute" style="ellipse;whiteSpace=wrap;html=1;align=center;" vertex="1" parent="1">
          <mxGeometry x="-1580" y="290" width="100" height="40" as="geometry" />
        </mxCell>
        <mxCell id="jRGIRm8XnioBFw0qTzFV-4" value="Nome_Usuario" style="ellipse;whiteSpace=wrap;html=1;align=center;" vertex="1" parent="1">
          <mxGeometry x="-530" y="403" width="100" height="40" as="geometry" />
        </mxCell>
        <mxCell id="jRGIRm8XnioBFw0qTzFV-6" style="edgeStyle=orthogonalEdgeStyle;rounded=0;orthogonalLoop=1;jettySize=auto;html=1;exitX=0;exitY=0.5;exitDx=0;exitDy=0;entryX=1;entryY=0.5;entryDx=0;entryDy=0;endArrow=none;endFill=0;" edge="1" parent="1" source="jRGIRm8XnioBFw0qTzFV-5" target="LTAQ_SRKEP-H9aSpujnp-1">
          <mxGeometry relative="1" as="geometry" />
        </mxCell>
        <mxCell id="jRGIRm8XnioBFw0qTzFV-5" value="ID_Usuario" style="ellipse;whiteSpace=wrap;html=1;align=center;fontStyle=4;" vertex="1" parent="1">
          <mxGeometry x="-270" y="521.5" width="100" height="40" as="geometry" />
        </mxCell>
        <mxCell id="jRGIRm8XnioBFw0qTzFV-10" value="Peça" style="whiteSpace=wrap;html=1;align=center;" vertex="1" parent="1">
          <mxGeometry x="-810" y="603.5" width="110" height="43" as="geometry" />
        </mxCell>
      </root>
    </mxGraphModel>
  </diagram>
</mxfile>
